<svg width="173" height="250" viewBox="0 0 173 250" fill="none" xmlns="http://www.w3.org/2000/svg">
<path d="M130.576 25.3442C128.031 20.201 124.49 20.3023 122.436 22.1094C121.661 22.787 121.117 23.6924 120.882 24.6968C121.55 24.7372 122.099 25.239 122.203 25.9026C123.113 33.4811 122.563 41.1656 120.582 48.5358C121.194 48.9585 121.765 49.4356 122.291 49.9611C122.838 50.528 122.823 51.4324 122.259 51.9812C121.694 52.5304 120.793 52.516 120.247 51.9492C118.554 50.5118 116.674 49.312 114.659 48.3838C113.955 48.0332 113.667 47.1761 114.016 46.4693C114.366 45.7625 115.22 45.4737 115.924 45.8243C116.675 46.1982 117.378 46.5702 118.034 46.9399C119.759 40.2175 120.218 33.2317 119.39 26.3401C119.272 25.5723 119.787 24.851 120.55 24.7171C118.585 14.5088 112.996 8.47793 109.123 8.47793C108.395 8.46026 107.676 8.6379 107.039 8.99271C106.402 9.34799 105.872 9.86743 105.502 10.4971C106.075 10.7608 106.406 11.3714 106.315 11.9973C105.615 16.7406 108.309 17.9482 108.309 29.0377C108.309 33.4485 107.726 38.8967 106.464 41.9554C106.961 42.1205 107.454 42.2898 107.94 42.4633C108.591 42.6986 108.979 43.3682 108.862 44.0518C108.744 44.7354 108.155 45.2358 107.464 45.2386C106.791 45.2386 105.023 44.2764 100.247 43.1274C99.4823 42.9432 99.0111 42.1722 99.1941 41.4049C99.3776 40.6376 100.146 40.1647 100.91 40.3488C101.82 40.5679 102.768 40.8213 103.739 41.104C105.02 37.216 105.604 33.1306 105.463 29.0375C105.463 17.9005 102.64 17.403 103.5 11.5781C103.58 11.0377 103.963 10.5913 104.482 10.4294C100.063 -1.08976 93.0265 0.0296417 93.0265 0.0296417L93.0269 0.0291766C91.9114 0.0714942 90.8324 0.440721 89.9234 1.0913C87.1868 3.16581 88.037 7.22923 89.3758 10.6094C90.0837 10.3049 90.9042 10.6225 91.2262 11.3251C94.8935 19.3483 94.9468 30.4012 93.8016 39.188C94.3205 39.2215 94.8542 39.2699 95.4027 39.3331C96.1833 39.4243 96.743 40.1334 96.6521 40.917C96.5613 41.7006 95.8548 42.2624 95.0742 42.1712C93.0552 41.8638 90.9973 41.9308 89.0025 42.3679C88.2473 42.586 87.4588 42.1484 87.2415 41.3899C87.0242 40.6319 87.4602 39.8404 88.2158 39.6223C89.1025 39.3773 90.0123 39.2275 90.9306 39.1754C92.0328 30.9403 92.0865 20.0625 88.6393 12.5173C88.4016 11.9969 88.4961 11.384 88.8797 10.9604C86.1923 7.90841 82.0213 6.58639 79.2421 8.02055C76.3568 9.50959 74.973 13.9655 78.3164 22.5383C82.9673 34.4608 76.8534 47.9298 75.2282 50.0131C73.6002 52.0988 66.8429 62.8273 60.5859 52.9019C54.3293 42.9791 44.441 40.5937 39.8096 45.2392C39.1258 46.2237 38.9016 47.4574 39.1939 48.6213C39.4867 49.7848 40.2678 50.7637 41.3353 51.3045C46.5175 54.5495 50.5119 59.3936 52.7181 65.1104C55.1832 71.8705 58.3484 88.9531 68.6436 96.4506C68.6436 96.4506 71.9139 110.828 68.8174 119.702C68.5978 120.338 68.5987 121.03 68.8206 121.666C69.0421 122.302 69.4715 122.844 70.0386 123.204C82.1133 130.885 97.0533 128.566 109.27 121.701C109.803 121.4 110.231 120.942 110.497 120.39C110.762 119.837 110.854 119.216 110.759 118.61L109.114 108.156C109.114 108.156 125.674 85.0824 130.575 68.1337C135.476 51.1826 134.603 33.4827 130.575 25.3447L130.576 25.3442ZM116.484 67.8451C115.885 68.3552 114.986 68.2808 114.478 67.6786C109.762 62.0912 95.1501 57.1513 90.0017 58.0577C94.7462 65.8125 99.9335 76.9004 99.6782 88.0218C99.6727 88.4026 99.5156 88.7654 99.2423 89.0295C98.969 89.2931 98.6016 89.4368 98.2226 89.428C97.8432 89.4192 97.4832 89.2587 97.2224 88.9825C96.9616 88.7063 96.8212 88.3366 96.8328 87.9562C97.1001 76.3026 90.6336 64.3326 86.755 58.235C85.5102 56.2526 84.1662 54.3352 82.7277 52.4895C82.2353 51.8766 82.3298 50.9796 82.9385 50.4834C83.5472 49.9872 84.4414 50.0788 84.9375 50.6889C85.0047 50.7717 86.4413 52.556 88.4097 55.5484C93.9125 53.5367 110.974 59.1081 116.649 65.8315C116.894 66.1208 117.014 66.4947 116.982 66.8723C116.951 67.2499 116.772 67.6 116.484 67.8451Z" fill="#0E3C26"/>
<path d="M15.0867 191.8C13.7867 191.8 12.5867 191.567 11.4867 191.1C10.4201 190.633 9.55339 190 8.88672 189.2C8.25339 188.4 7.93672 187.483 7.93672 186.45C7.93672 185.383 8.22005 184.433 8.78672 183.6C9.38672 182.767 10.2534 182.333 11.3867 182.3C12.6534 182.233 13.5534 182.55 14.0867 183.25C14.6534 183.917 14.9534 184.683 14.9867 185.55C15.0201 185.817 14.9867 186.117 14.8867 186.45C14.8201 186.783 14.7034 187.1 14.5367 187.4C14.7034 187.733 14.9534 187.95 15.2867 188.05C15.6534 188.15 15.9201 188.2 16.0867 188.2C16.7867 188.2 17.3201 187.9 17.6867 187.3C18.0867 186.667 18.2867 185.65 18.2867 184.25V164.2C18.2867 163.3 18.3034 162.433 18.3367 161.6C18.3701 160.767 18.4201 160.133 18.4867 159.7C17.9534 159.733 17.2867 159.767 16.4867 159.8C15.6867 159.8 15.1034 159.817 14.7367 159.85V156H29.0867V159.3C28.3534 159.333 27.7201 159.433 27.1867 159.6C26.6534 159.767 26.2367 160.15 25.9367 160.75C25.6701 161.317 25.5367 162.283 25.5367 163.65V178.3C25.5367 183.1 24.6367 186.55 22.8367 188.65C21.0367 190.75 18.4534 191.8 15.0867 191.8ZM41.7711 191.8C39.7711 191.8 38.1544 191.417 36.9211 190.65C35.7211 189.883 34.8378 188.683 34.2711 187.05C33.7378 185.417 33.4711 183.317 33.4711 180.75V175C33.4711 174.4 33.4878 173.717 33.5211 172.95C33.5544 172.15 33.5878 171.383 33.6211 170.65C33.0878 170.683 32.4544 170.717 31.7211 170.75C31.0211 170.75 30.4878 170.767 30.1211 170.8V167H30.6211C32.6878 167 34.3211 166.833 35.5211 166.5C36.7211 166.167 37.4878 165.833 37.8211 165.5H40.5711V180.8C40.5711 182.967 40.8544 184.583 41.4211 185.65C41.9878 186.683 42.8878 187.2 44.1211 187.2C44.9878 187.2 45.8544 186.967 46.7211 186.5C47.6211 186 48.3544 185.433 48.9211 184.8V175C48.9211 174.4 48.9378 173.717 48.9711 172.95C49.0044 172.15 49.0544 171.383 49.1211 170.65C48.5878 170.683 47.9544 170.717 47.2211 170.75C46.5211 170.75 45.9878 170.767 45.6211 170.8V167H46.8211C48.3878 167 49.7711 166.833 50.9711 166.5C52.1711 166.133 52.9378 165.8 53.2711 165.5H56.0211V182.95C56.0211 183.417 56.0044 184.083 55.9711 184.95C55.9378 185.783 55.8878 186.583 55.8211 187.35C56.3544 187.283 56.9378 187.25 57.5711 187.25C58.2378 187.217 58.7378 187.2 59.0711 187.2V191H49.5711C49.5378 190.567 49.4878 190.133 49.4211 189.7C49.3878 189.267 49.3378 188.833 49.2711 188.4C48.2378 189.267 47.1211 190.05 45.9211 190.75C44.7544 191.45 43.3711 191.8 41.7711 191.8ZM62.3293 191V187.75C63.2626 187.75 63.9293 187.567 64.3293 187.2C64.7293 186.833 64.9793 186.317 65.0793 185.65C65.2126 184.95 65.2793 184.167 65.2793 183.3V174.9C65.2793 174.3 65.296 173.633 65.3293 172.9C65.3626 172.133 65.4126 171.383 65.4793 170.65C64.946 170.683 64.3126 170.717 63.5793 170.75C62.8793 170.75 62.346 170.767 61.9793 170.8V167C63.5126 167 64.8126 166.917 65.8793 166.75C66.946 166.583 67.7793 166.383 68.3793 166.15C69.0126 165.917 69.446 165.7 69.6793 165.5H72.1293C72.196 165.933 72.2293 166.25 72.2293 166.45C72.2293 166.65 72.2293 166.85 72.2293 167.05C72.2626 167.217 72.3293 167.533 72.4293 168C73.096 167.467 73.8626 167 74.7293 166.6C75.596 166.167 76.4626 165.833 77.3293 165.6C78.196 165.333 78.9626 165.2 79.6293 165.2C82.696 165.2 84.8626 166.083 86.1293 167.85C87.4293 169.583 88.0793 172.383 88.0793 176.25V182.95C88.0793 183.417 88.0626 184.083 88.0293 184.95C87.996 185.783 87.946 186.583 87.8793 187.35C88.446 187.283 89.046 187.25 89.6793 187.25C90.3126 187.217 90.796 187.2 91.1293 187.2V191H78.0293V187.75C78.9626 187.75 79.6293 187.567 80.0293 187.2C80.4626 186.833 80.7293 186.317 80.8293 185.65C80.9626 184.95 81.0293 184.167 81.0293 183.3L80.9793 176.2C80.9793 174.033 80.6626 172.433 80.0293 171.4C79.4293 170.333 78.396 169.8 76.9293 169.8C76.096 169.8 75.2626 169.983 74.4293 170.35C73.6293 170.717 72.946 171.15 72.3793 171.65C72.3793 172.117 72.3793 172.6 72.3793 173.1C72.3793 173.567 72.3793 174.033 72.3793 174.5V182.95C72.3793 183.417 72.3626 184.083 72.3293 184.95C72.296 185.783 72.246 186.583 72.1793 187.35C72.7126 187.283 73.296 187.25 73.9293 187.25C74.596 187.217 75.096 187.2 75.4293 187.2V191H62.3293ZM103.821 191.8C102.821 191.8 101.854 191.683 100.921 191.45C99.9878 191.217 99.1544 190.783 98.4211 190.15C97.6878 189.483 97.1044 188.517 96.6711 187.25C96.2378 185.983 96.0211 184.3 96.0211 182.2L96.1211 170.15H92.7211V166C93.7544 165.967 94.7544 165.617 95.7211 164.95C96.6878 164.283 97.5044 163.417 98.1711 162.35C98.8711 161.283 99.3378 160.167 99.5711 159H103.271L103.221 166H109.571V169.85L103.221 170L103.171 182.3C103.171 183.067 103.238 183.833 103.371 184.6C103.538 185.333 103.838 185.95 104.271 186.45C104.704 186.917 105.338 187.15 106.171 187.15C106.638 187.15 107.271 186.983 108.071 186.65C108.904 186.317 109.788 185.483 110.721 184.15L113.121 186.4C112.221 187.733 111.288 188.767 110.321 189.5C109.354 190.233 108.421 190.767 107.521 191.1C106.654 191.433 105.888 191.633 105.221 191.7C104.554 191.767 104.088 191.8 103.821 191.8ZM126.825 191.8C124.425 191.8 122.259 191.283 120.325 190.25C118.392 189.217 116.859 187.75 115.725 185.85C114.625 183.917 114.075 181.65 114.075 179.05C114.075 176.283 114.642 173.867 115.775 171.8C116.942 169.7 118.475 168.083 120.375 166.95C122.309 165.783 124.409 165.2 126.675 165.2C129.075 165.2 131.225 165.717 133.125 166.75C135.025 167.783 136.525 169.267 137.625 171.2C138.725 173.1 139.275 175.383 139.275 178.05C139.275 180.85 138.742 183.283 137.675 185.35C136.609 187.417 135.142 189.017 133.275 190.15C131.409 191.25 129.259 191.8 126.825 191.8ZM127.025 188.25C128.359 188.217 129.359 187.75 130.025 186.85C130.725 185.95 131.209 184.817 131.475 183.45C131.742 182.083 131.875 180.7 131.875 179.3C131.875 178.067 131.775 176.817 131.575 175.55C131.409 174.283 131.125 173.133 130.725 172.1C130.325 171.067 129.775 170.233 129.075 169.6C128.409 168.967 127.575 168.667 126.575 168.7C125.275 168.733 124.242 169.2 123.475 170.1C122.742 171 122.209 172.133 121.875 173.5C121.575 174.833 121.425 176.233 121.425 177.7C121.425 179.4 121.609 181.067 121.975 182.7C122.342 184.333 122.925 185.683 123.725 186.75C124.559 187.783 125.659 188.283 127.025 188.25ZM154.396 191.8C152.962 191.8 151.562 191.617 150.196 191.25C148.829 190.883 147.762 190.417 146.996 189.85L147.096 191.35H143.296L143.096 182.75H146.346C146.446 183.75 146.846 184.667 147.546 185.5C148.246 186.333 149.162 187 150.296 187.5C151.429 187.967 152.696 188.2 154.096 188.2C154.662 188.2 155.196 188.117 155.696 187.95C156.229 187.783 156.662 187.517 156.996 187.15C157.362 186.75 157.546 186.267 157.546 185.7C157.546 185.067 157.312 184.55 156.846 184.15C156.412 183.75 155.762 183.367 154.896 183C154.062 182.633 153.012 182.217 151.746 181.75C150.712 181.35 149.662 180.933 148.596 180.5C147.562 180.067 146.596 179.55 145.696 178.95C144.829 178.317 144.129 177.55 143.596 176.65C143.062 175.717 142.796 174.583 142.796 173.25C142.796 172.283 142.979 171.333 143.346 170.4C143.712 169.433 144.279 168.567 145.046 167.8C145.812 167 146.779 166.367 147.946 165.9C149.146 165.433 150.562 165.2 152.196 165.2C153.096 165.2 154.112 165.35 155.246 165.65C156.412 165.917 157.396 166.333 158.196 166.9V165.45H161.996V174.3H158.746C158.546 173.133 158.129 172.133 157.496 171.3C156.896 170.467 156.112 169.833 155.146 169.4C154.179 168.933 153.096 168.7 151.896 168.7C151.062 168.7 150.296 168.9 149.596 169.3C148.929 169.7 148.596 170.383 148.596 171.35C148.596 172.117 148.862 172.733 149.396 173.2C149.929 173.633 150.662 174 151.596 174.3C152.529 174.6 153.562 174.95 154.696 175.35C156.396 175.917 157.896 176.583 159.196 177.35C160.529 178.117 161.579 179.05 162.346 180.15C163.112 181.217 163.496 182.533 163.496 184.1C163.496 185.833 163.062 187.267 162.196 188.4C161.329 189.533 160.196 190.383 158.796 190.95C157.429 191.517 155.962 191.8 154.396 191.8ZM20.7148 241.5C17.0482 241.5 13.8982 240.767 11.2648 239.3C8.66484 237.8 6.66484 235.7 5.26484 233C3.86484 230.267 3.16484 227.05 3.16484 223.35C3.16484 220.583 3.56484 218.1 4.36484 215.9C5.16484 213.667 6.31484 211.767 7.81484 210.2C9.31484 208.6 11.1482 207.383 13.3148 206.55C15.5148 205.683 17.9815 205.25 20.7148 205.25C22.5482 205.25 24.3482 205.483 26.1148 205.95C27.8815 206.417 29.4315 207.083 30.7648 207.95C31.4648 208.383 31.9315 208.917 32.1648 209.55C32.3982 210.15 32.4482 210.75 32.3148 211.35C32.1815 211.917 31.8982 212.4 31.4648 212.8C31.0648 213.2 30.5482 213.433 29.9148 213.5C29.3148 213.533 28.6482 213.317 27.9148 212.85C26.8815 212.183 25.7648 211.7 24.5648 211.4C23.3648 211.1 22.1482 210.95 20.9148 210.95C18.5482 210.95 16.5482 211.433 14.9148 212.4C13.2815 213.367 12.0482 214.767 11.2148 216.6C10.3815 218.433 9.96484 220.683 9.96484 223.35C9.96484 225.983 10.3815 228.233 11.2148 230.1C12.0482 231.967 13.2815 233.383 14.9148 234.35C16.5482 235.317 18.5482 235.8 20.9148 235.8C22.1815 235.8 23.4315 235.65 24.6648 235.35C25.8982 235.017 27.0648 234.517 28.1648 233.85C28.8982 233.417 29.5482 233.233 30.1148 233.3C30.7148 233.333 31.2148 233.533 31.6148 233.9C32.0148 234.267 32.2815 234.733 32.4148 235.3C32.5482 235.833 32.5148 236.4 32.3148 237C32.1148 237.567 31.7148 238.067 31.1148 238.5C29.7815 239.467 28.1815 240.217 26.3148 240.75C24.4815 241.25 22.6148 241.5 20.7148 241.5ZM45.9145 241.5C43.8811 241.5 42.1978 241.133 40.8645 240.4C39.5311 239.633 38.5311 238.5 37.8645 237C37.2311 235.5 36.9145 233.633 36.9145 231.4V219.3C36.9145 218.233 37.1811 217.45 37.7145 216.95C38.2478 216.417 39.0145 216.15 40.0145 216.15C41.0145 216.15 41.7811 216.417 42.3145 216.95C42.8811 217.45 43.1645 218.233 43.1645 219.3V231.5C43.1645 233.233 43.5145 234.517 44.2145 235.35C44.9145 236.183 46.0311 236.6 47.5645 236.6C49.2311 236.6 50.5978 236.033 51.6645 234.9C52.7311 233.733 53.2645 232.2 53.2645 230.3V219.3C53.2645 218.233 53.5311 217.45 54.0645 216.95C54.5978 216.417 55.3645 216.15 56.3645 216.15C57.3645 216.15 58.1311 216.417 58.6645 216.95C59.2311 217.45 59.5145 218.233 59.5145 219.3V238.2C59.5145 240.333 58.4978 241.4 56.4645 241.4C55.4978 241.4 54.7478 241.133 54.2145 240.6C53.6811 240.033 53.4145 239.233 53.4145 238.2V234.4L54.1145 235.9C53.4145 237.7 52.3478 239.083 50.9145 240.05C49.5145 241.017 47.8478 241.5 45.9145 241.5ZM74.3695 241.5C71.6029 241.5 69.5195 240.717 68.1195 239.15C66.7195 237.55 66.0195 235.217 66.0195 232.15V208.5C66.0195 207.467 66.2862 206.683 66.8195 206.15C67.3529 205.617 68.1195 205.35 69.1195 205.35C70.1195 205.35 70.8862 205.617 71.4195 206.15C71.9862 206.683 72.2695 207.467 72.2695 208.5V231.85C72.2695 233.383 72.5862 234.517 73.2195 235.25C73.8862 235.983 74.8195 236.35 76.0195 236.35C76.2862 236.35 76.5362 236.35 76.7695 236.35C77.0029 236.317 77.2362 236.283 77.4695 236.25C77.9362 236.183 78.2529 236.317 78.4195 236.65C78.5862 236.95 78.6695 237.583 78.6695 238.55C78.6695 239.383 78.5029 240.033 78.1695 240.5C77.8362 240.967 77.2862 241.25 76.5195 241.35C76.1862 241.383 75.8362 241.417 75.4695 241.45C75.1029 241.483 74.7362 241.5 74.3695 241.5ZM92.5516 241.5C90.3849 241.5 88.5682 241.133 87.1016 240.4C85.6682 239.667 84.6016 238.6 83.9016 237.2C83.2016 235.767 82.8516 234 82.8516 231.9V221.25H80.2516C79.4516 221.25 78.8349 221.05 78.4016 220.65C77.9682 220.217 77.7516 219.633 77.7516 218.9C77.7516 218.133 77.9682 217.55 78.4016 217.15C78.8349 216.75 79.4516 216.55 80.2516 216.55H82.8516V212C82.8516 210.967 83.1182 210.183 83.6516 209.65C84.2182 209.117 85.0016 208.85 86.0016 208.85C87.0016 208.85 87.7682 209.117 88.3016 209.65C88.8349 210.183 89.1016 210.967 89.1016 212V216.55H94.4016C95.2016 216.55 95.8182 216.75 96.2516 217.15C96.6849 217.55 96.9016 218.133 96.9016 218.9C96.9016 219.633 96.6849 220.217 96.2516 220.65C95.8182 221.05 95.2016 221.25 94.4016 221.25H89.1016V231.55C89.1016 233.15 89.4516 234.35 90.1516 235.15C90.8516 235.95 91.9849 236.35 93.5516 236.35C94.1182 236.35 94.6182 236.3 95.0516 236.2C95.4849 236.1 95.8682 236.033 96.2016 236C96.6016 235.967 96.9349 236.1 97.2016 236.4C97.4682 236.667 97.6016 237.233 97.6016 238.1C97.6016 238.767 97.4849 239.367 97.2516 239.9C97.0516 240.4 96.6682 240.75 96.1016 240.95C95.6682 241.083 95.1016 241.2 94.4016 241.3C93.7016 241.433 93.0849 241.5 92.5516 241.5ZM109.391 241.5C107.358 241.5 105.674 241.133 104.341 240.4C103.008 239.633 102.008 238.5 101.341 237C100.708 235.5 100.391 233.633 100.391 231.4V219.3C100.391 218.233 100.658 217.45 101.191 216.95C101.724 216.417 102.491 216.15 103.491 216.15C104.491 216.15 105.258 216.417 105.791 216.95C106.358 217.45 106.641 218.233 106.641 219.3V231.5C106.641 233.233 106.991 234.517 107.691 235.35C108.391 236.183 109.508 236.6 111.041 236.6C112.708 236.6 114.074 236.033 115.141 234.9C116.208 233.733 116.741 232.2 116.741 230.3V219.3C116.741 218.233 117.008 217.45 117.541 216.95C118.074 216.417 118.841 216.15 119.841 216.15C120.841 216.15 121.608 216.417 122.141 216.95C122.708 217.45 122.991 218.233 122.991 219.3V238.2C122.991 240.333 121.974 241.4 119.941 241.4C118.974 241.4 118.224 241.133 117.691 240.6C117.158 240.033 116.891 239.233 116.891 238.2V234.4L117.591 235.9C116.891 237.7 115.824 239.083 114.391 240.05C112.991 241.017 111.324 241.5 109.391 241.5ZM132.696 241.4C131.663 241.4 130.863 241.133 130.296 240.6C129.763 240.033 129.496 239.233 129.496 238.2V219.3C129.496 218.267 129.763 217.483 130.296 216.95C130.829 216.417 131.579 216.15 132.546 216.15C133.513 216.15 134.263 216.417 134.796 216.95C135.329 217.483 135.596 218.267 135.596 219.3V222.45H135.096C135.563 220.45 136.479 218.933 137.846 217.9C139.213 216.867 141.029 216.25 143.296 216.05C143.996 215.983 144.546 216.167 144.946 216.6C145.379 217 145.629 217.633 145.696 218.5C145.763 219.333 145.563 220.017 145.096 220.55C144.663 221.05 143.996 221.35 143.096 221.45L141.996 221.55C139.963 221.75 138.429 222.383 137.396 223.45C136.363 224.483 135.846 225.95 135.846 227.85V238.2C135.846 239.233 135.579 240.033 135.046 240.6C134.513 241.133 133.729 241.4 132.696 241.4ZM160.736 241.5C157.969 241.5 155.586 240.983 153.586 239.95C151.586 238.917 150.036 237.45 148.936 235.55C147.869 233.65 147.336 231.4 147.336 228.8C147.336 226.267 147.852 224.05 148.886 222.15C149.952 220.25 151.402 218.767 153.236 217.7C155.102 216.6 157.219 216.05 159.586 216.05C161.319 216.05 162.869 216.333 164.236 216.9C165.636 217.467 166.819 218.283 167.786 219.35C168.786 220.417 169.536 221.717 170.036 223.25C170.569 224.75 170.836 226.45 170.836 228.35C170.836 228.95 170.619 229.417 170.186 229.75C169.786 230.05 169.202 230.2 168.436 230.2H152.386V226.6H166.436L165.636 227.35C165.636 225.817 165.402 224.533 164.936 223.5C164.502 222.467 163.852 221.683 162.986 221.15C162.152 220.583 161.102 220.3 159.836 220.3C158.436 220.3 157.236 220.633 156.236 221.3C155.269 221.933 154.519 222.85 153.986 224.05C153.486 225.217 153.236 226.617 153.236 228.25V228.6C153.236 231.333 153.869 233.383 155.136 234.75C156.436 236.083 158.336 236.75 160.836 236.75C161.702 236.75 162.669 236.65 163.736 236.45C164.836 236.217 165.869 235.833 166.836 235.3C167.536 234.9 168.152 234.733 168.686 234.8C169.219 234.833 169.636 235.017 169.936 235.35C170.269 235.683 170.469 236.1 170.536 236.6C170.602 237.067 170.502 237.55 170.236 238.05C170.002 238.55 169.586 238.983 168.986 239.35C167.819 240.083 166.469 240.633 164.936 241C163.436 241.333 162.036 241.5 160.736 241.5Z" fill="#0E3C26"/>
</svg>
