<svg width="95" height="128" viewBox="0 0 95 128" fill="none" xmlns="http://www.w3.org/2000/svg">
<path d="M91.5078 25.3442C88.962 20.201 85.4212 20.3023 83.3679 22.1094C82.5924 22.787 82.0485 23.6924 81.8132 24.6968C82.4812 24.7373 83.0307 25.239 83.134 25.9026C84.0444 33.4811 83.4945 41.1656 81.514 48.5358C82.125 48.9585 82.6967 49.4356 83.2225 49.9611C83.7692 50.528 83.7548 51.4324 83.1905 51.9812C82.6258 52.5304 81.7248 52.516 81.178 51.9492C79.4853 50.5118 77.6057 49.312 75.5904 48.3838C74.8862 48.0332 74.5986 47.1761 74.9479 46.4693C75.2972 45.7625 76.1511 45.4737 76.8552 45.8243C77.6062 46.1982 78.3095 46.5702 78.9659 46.9399C80.6902 40.2175 81.1498 33.2317 80.3215 26.3401C80.2034 25.5723 80.7185 24.851 81.4811 24.7171C79.5168 14.5088 73.9277 8.47793 70.0547 8.47793C69.3264 8.46026 68.607 8.6379 67.9704 8.99271C67.3339 9.34799 66.8035 9.86743 66.4338 10.4971C67.0068 10.7608 67.3376 11.3714 67.2468 11.9973C66.5468 16.7406 69.2407 17.9482 69.2407 29.0377C69.2407 33.4485 68.6574 38.8967 67.3959 41.9555C67.8921 42.1205 68.3859 42.2898 68.8719 42.4633C69.5223 42.6986 69.9105 43.3682 69.7933 44.0518C69.6756 44.7354 69.0864 45.2358 68.3951 45.2386C67.7229 45.2386 65.9541 44.2764 61.1781 43.1274C60.4137 42.9432 59.9426 42.1722 60.1256 41.4049C60.309 40.6376 61.0771 40.1647 61.8416 40.3488C62.7519 40.5679 63.6998 40.8213 64.6704 41.104C65.9514 37.216 66.5352 33.1306 66.3943 29.0375C66.3943 17.9005 63.5715 17.403 64.4313 11.5781C64.5119 11.0377 64.8941 10.5913 65.4139 10.4294C60.9942 -1.08976 53.9579 0.0296417 53.9579 0.0296417C52.8424 0.0719592 51.7638 0.440721 50.8549 1.0913C48.1183 3.16581 48.9684 7.22923 50.3073 10.6094C51.0152 10.3049 51.8357 10.6225 52.1577 11.3251C55.825 19.3483 55.8783 30.4012 54.7331 39.188C55.2519 39.2215 55.7856 39.2699 56.3342 39.3331C57.1148 39.4243 57.6744 40.1334 57.5836 40.917C57.4928 41.7006 56.7863 42.2624 56.0056 42.1712C53.9867 41.8638 51.9288 41.9308 49.9339 42.3679C49.1788 42.586 48.3902 42.1484 48.173 41.3899C47.9557 40.632 48.3916 39.8404 49.1472 39.6223C50.0339 39.3773 50.9438 39.2275 51.8621 39.1755C52.9642 30.9403 53.018 20.0625 49.5707 12.5173C49.3331 11.9969 49.4276 11.384 49.8112 10.9604C47.1237 7.90841 42.9528 6.58639 40.1735 8.02055C37.2883 9.50959 35.9044 13.9655 39.2479 22.5383C43.8988 34.4608 37.7849 47.9298 36.1597 50.0131C34.5317 52.0988 27.7743 62.8273 21.5174 52.9019C15.2608 42.9791 5.37241 40.5937 0.741093 45.2392C0.057295 46.2237 -0.166928 47.4574 0.125396 48.6213C0.418195 49.7848 1.19928 50.7637 2.26671 51.3045C7.44892 54.5495 11.4434 59.3936 13.6495 65.1104C16.1146 71.8705 19.2798 88.9531 29.5751 96.4506C29.5751 96.4506 32.8454 110.828 29.7488 119.702C29.5292 120.338 29.5302 121.03 29.7521 121.666C29.9735 122.302 30.403 122.844 30.9701 123.204C43.0447 130.885 57.9847 128.566 70.2017 121.701C70.7344 121.4 71.1621 120.942 71.428 120.39C71.6939 119.837 71.7857 119.216 71.6902 118.61L70.0451 108.156C70.0451 108.156 86.6052 85.0824 91.5069 68.1337C96.4079 51.1826 95.5342 33.4828 91.5064 25.3447L91.5078 25.3442ZM77.4158 67.8451C76.8163 68.3552 75.918 68.2808 75.4098 67.6786C70.6931 62.0913 56.0816 57.1513 50.9332 58.0577C55.6776 65.8125 60.8649 76.9004 60.6097 88.0218C60.6041 88.4026 60.4471 88.7654 60.1738 89.0295C59.9004 89.2932 59.533 89.4369 59.1541 89.428C58.7747 89.4192 58.4147 89.2588 58.1538 88.9825C57.893 88.7063 57.7527 88.3366 57.7642 87.9562C58.0315 76.3026 51.565 64.3326 47.6865 58.235C46.4416 56.2526 45.0977 54.3353 43.6592 52.4896C43.1667 51.8766 43.2612 50.9796 43.87 50.4834C44.4787 49.9872 45.3729 50.0788 45.869 50.6889C45.9361 50.7717 47.3728 52.556 49.3412 55.5484C54.844 53.5368 71.906 59.1082 77.581 65.8316C77.8251 66.1208 77.9451 66.4947 77.9136 66.8723C77.8826 67.2499 77.7035 67.6 77.4158 67.8451Z" fill="#0E3C26" fill-opacity="0.2"/>
</svg>
