<svg width="18" height="25" viewBox="0 0 18 25" fill="none" xmlns="http://www.w3.org/2000/svg">
<path d="M0.629406 5.25203C1.10673 4.28769 1.77063 4.30668 2.15563 4.64552C2.30104 4.77256 2.40302 4.94232 2.44714 5.13065C2.32188 5.13823 2.21885 5.23232 2.19948 5.35674C2.02879 6.77771 2.1319 8.21855 2.50324 9.60046C2.38867 9.67972 2.28147 9.76918 2.18289 9.86771C2.08039 9.974 2.08308 10.1436 2.18888 10.2465C2.29477 10.3495 2.46372 10.3468 2.56623 10.2405C2.88363 9.97096 3.23604 9.74601 3.6139 9.57197C3.74594 9.50622 3.79988 9.34552 3.73438 9.213C3.66889 9.08046 3.50879 9.02632 3.37676 9.09206C3.23596 9.16216 3.10409 9.23192 2.981 9.30123C2.65769 8.04077 2.57152 6.73094 2.72683 5.43876C2.74898 5.29481 2.65238 5.15957 2.50941 5.13446C2.8777 3.22041 3.92566 2.08961 4.65185 2.08961C4.7884 2.0863 4.9233 2.11961 5.04265 2.18613C5.162 2.25275 5.26146 2.35014 5.33078 2.46821C5.22333 2.51764 5.16131 2.63213 5.17833 2.7495C5.30958 3.63887 4.80448 3.8653 4.80448 5.94457C4.80448 6.77159 4.91384 7.79312 5.15038 8.36665C5.05735 8.3976 4.96475 8.42934 4.87363 8.46186C4.75168 8.50598 4.67888 8.63154 4.70086 8.75972C4.72293 8.88789 4.83342 8.98171 4.96302 8.98223C5.08906 8.98223 5.42071 8.80183 6.31621 8.58639C6.45954 8.55186 6.54788 8.40729 6.51357 8.26342C6.47917 8.11955 6.33515 8.03088 6.19181 8.06541C6.02112 8.10647 5.8434 8.15399 5.66141 8.20701C5.42122 7.47799 5.31177 6.712 5.33819 5.94452C5.33819 3.85635 5.86746 3.76307 5.70624 2.67089C5.69112 2.56957 5.61946 2.48586 5.522 2.45552C6.3507 0.295671 7.67 0.505558 7.67 0.505558L7.66991 0.505471C7.87908 0.513405 8.08139 0.582635 8.25182 0.704619C8.76493 1.09359 8.60553 1.85548 8.3545 2.48927V2.48936C8.22177 2.43225 8.06792 2.49171 8.00755 2.62346C7.31992 4.1278 7.30994 6.20022 7.52466 7.84775C7.42737 7.85403 7.3273 7.8631 7.22446 7.87496C7.07809 7.89205 6.97315 8.02502 6.99018 8.17194C7.00722 8.31887 7.13968 8.4242 7.28605 8.4071C7.6646 8.34946 8.05047 8.36202 8.4245 8.44398C8.56609 8.48487 8.71394 8.40282 8.75468 8.26061C8.79542 8.11849 8.71368 7.97008 8.572 7.92919C8.40574 7.88324 8.23515 7.85516 8.06297 7.8454C7.85631 6.3013 7.84624 4.26172 8.49259 2.84699C8.53716 2.74943 8.51944 2.63451 8.44751 2.55508C8.95141 1.98283 9.73346 1.73495 10.2546 2.00385C10.7956 2.28305 11.055 3.11853 10.4281 4.72593C9.55609 6.96141 10.7024 9.48684 11.0072 9.87746C11.3124 10.2685 12.5794 12.2801 13.7526 10.4191C14.9257 8.55858 16.7798 8.11131 17.6482 8.98235C17.7764 9.16694 17.8184 9.39826 17.7636 9.6165C17.7087 9.83465 17.5622 10.0182 17.3621 10.1196C16.3904 10.728 15.6415 11.6363 15.2278 12.7082C14.7656 13.9757 14.1721 17.1787 12.2418 18.5845C12.2418 18.5845 11.6286 21.2802 12.2092 22.9441C12.2504 23.0634 12.2502 23.1932 12.2086 23.3125C12.1671 23.4316 12.0865 23.5332 11.9802 23.6008C9.71622 25.0409 6.91498 24.6062 4.6243 23.319H4.62438C4.52449 23.2625 4.44422 23.1767 4.39436 23.0731C4.3445 22.9695 4.3273 22.853 4.34519 22.7394L4.65365 20.7793C4.65365 20.7793 1.54864 16.4529 0.629564 13.2751C-0.289375 10.0967 -0.125551 6.77802 0.629652 5.25213L0.629406 5.25203ZM3.27166 13.2209C3.38406 13.3166 3.55249 13.3026 3.64778 13.1897C4.53216 12.1421 7.27181 11.2159 8.23714 11.3858C7.34755 12.8398 6.37493 14.9188 6.42279 17.0041C6.42383 17.0755 6.45328 17.1435 6.50453 17.193C6.55578 17.2425 6.62466 17.2694 6.69572 17.2678C6.76686 17.2661 6.83436 17.236 6.88326 17.1842C6.93217 17.1324 6.95849 17.0631 6.95632 16.9918C6.9062 14.8067 8.11867 12.5624 8.8459 11.4191C9.0793 11.0474 9.3313 10.6879 9.60102 10.3418C9.69335 10.2269 9.67563 10.0587 9.56149 9.96563C9.44735 9.8726 9.2797 9.88978 9.18668 10.0042C9.17408 10.0197 8.90471 10.3543 8.53563 10.9153C7.50386 10.5381 4.30474 11.5828 3.24068 12.8434V12.8433C3.1949 12.8976 3.1724 12.9678 3.17831 13.0386C3.18413 13.1094 3.21775 13.1749 3.27169 13.2209L3.27166 13.2209Z" fill="#0E3C26"/>
</svg>
